<svg xmlns="http://www.w3.org/2000/svg" id="_Слой_2" data-name="Слой 2" viewBox="0 0 1919 431.3"><defs><style>.cls-1{fill:#fff}</style></defs><g id="_Слой_1-2" data-name="Слой 1"><path d="M1622.2 0H0v431.3h1919L1622.2 0Z" style="fill:#e30613"/><path d="m1154.5 325.7 21.6-24 30.3-33.9c7.3-8.2 14.7-16.4 22.2-24.5 1.6-1.8 1-3 0-4.6l-23-41-22.7-40.2-1.5-3.2 3.4-.2 35.5-.1c2.7 0 4 .9 5.2 3.2l34.4 63.4 1.3 2 15.5-17.4 27.4-31 16.2-18.3c.8-.8 2.1-1.7 3.2-1.8h44c-27.8 31-54.8 61.5-82 92l52 90.8h-26.2c-3.6 0-7.3-.4-10.8 0-4.7.7-7-1.4-9.1-5.4-11.8-21.6-23.8-43-35.8-64.4-.2-.5-.6-.9-1.3-1.8l-11.3 12.4-29.1 32.8c-7.2 8-14.3 16.1-21.6 24a7.7 7.7 0 0 1-5 2.3l-63.2.1c-2.8 0-4-.8-4.8-3.4-3.3-10.6-6.9-21.2-10.1-31.8-.8-2.6-2-3.3-4.5-3.3h-95.1c-2.7 0-4 1-5.4 3.1l-20.8 32.6c-1 1.6-2 2.9-4.3 2.8h-35.5c-.4 0-.7-.2-1.4-.4l3-4.8 82.7-125.4c10.8-16.4 21.7-32.7 32.4-49.2 1.5-2.4 3-3.2 5.8-3.1 8.5.1 17 .2 25.5 0 3.3-.1 4.6.9 5.6 4l34.6 102 21 61.7 1.6 4Zm-55.2-56.8-24.3-78.4h-1.3l-49.7 78.4h75.3ZM439.6 119.8l-19.5 37.6-6.9-5.1a93.7 93.7 0 0 0-51.6-18.2c-18.7-1.1-37.2.4-54.9 7.4a80.5 80.5 0 0 0-43.7 40.1 117.3 117.3 0 0 0-12.7 55.8c.3 14.6 4.3 28.1 14.2 39.4a58 58 0 0 0 34.4 18.6c35 6.2 67.6-.7 97.7-19.8l3.7-2.3 1.9 5.1 10 28.5c1.2 2.9.6 4.5-1.9 6.2a132 132 0 0 1-45 21c-33 8.3-66.1 9.3-98.8-1.2-37.6-12-61-38-65.7-77.4-6-49.6 7.2-93.5 44.6-128.2 17.3-16.1 38.2-25.8 61.2-31.1 31.5-7.3 63-7.6 94.3 1.2a87.5 87.5 0 0 1 38.7 22.4ZM925.1 336.8h-34.4L911.3 207c-1 .7-1.6 1-2 1.6a61879 61879 0 0 0-73.1 95.6c-1.4 1.9-2.9 2.9-5.3 2.8-4.8-.2-9.6-.2-14.4 0-2.8.1-4-1-5-3.4l-22.5-51-20.2-45.4c-.3-.8-.9-1.5-1.8-3l-21.2 132.3h-34.5l29-182.5c12.3 0 24.1-.1 36 .1 1 0 2.4 1.7 3 3 4.9 10.8 9.6 21.8 14.4 32.7l30.7 70.9 4.3 9.7 8.4-11.1 76.6-103c.8-1 2.5-2.2 3.7-2.2 12.1-.2 24.2-.1 36.7-.1l-29 182.7ZM559.6 136h-92.8l1.1-9.8c1.5-9.6 3.2-19.1 4.5-28.7.4-2.7 1.5-3.5 4-3.4h233.3l-6.5 41.5-5.1.2h-83.6c-3.6 0-5 .6-5.7 4.8-3.4 23.6-7.2 47.2-11 70.7l-10.9 68-8.3 53.4c-.2 1.3-.6 2.5-1 4h-49.5L559.7 136Z" class="cls-1"/></g></svg>